:FULLY-SPECIFIED
:FORCE-ALL-JOINTS-BE-3DOF
:DEGREES
34
root 6.50273 16.791 -27.7654 5.7986 -0.738753 -1.17509
lfemur -17.4819 4.33351 -20.7207
ltibia 35.361 0 0
lfoot -34.9173 1.27691 0
ltoes 37.4719 0 0
rfemur -33.6928 -4.11764 25.9788
rtibia 45.3684 0 0
rfoot -21.8289 -3.78418 0
rtoes 11.4709 0 0
lowerback 0.54649 2.38836 -5.64678
upperback -1.14745 3.03073 2.12825
thorax -1.89032 1.62657 5.61345
lowerneck -10.2961 -1.99179 1.55196
upperneck -1.11507 -2.81429 -0.517055
head 1.35252 -1.4109 -0.528272
lclavicle -9.65095e-14 -3.25935e-14 0
lhumerus -41.8208 -12.7454 97.5241
lradius 37.9744 0 0
lwrist 5.29997 0 0
lhand -7.86454 3.43729 0
lfingers 7.12502 0 0
lthumb 18.0185 32.3951 0
rclavicle -9.65095e-14 -3.25935e-14 0
rhumerus -44.1704 -8.52244 -80.301
rradius 48.698 0 0
rwrist 1.0262 0 0
rhand -24.817 -23.089 0
rfingers 7.12502 0 0
rthumb 1.68828 -53.0571 0
35
root 6.5145 16.7883 -27.7514 5.64647 -0.634099 -1.11364
lfemur -17.3738 4.42214 -20.727
ltibia 35.3681 0 0
lfoot -34.7581 1.14132 0
ltoes 37.4152 0 0
rfemur -34.3337 -4.31511 26.2854
rtibia 45.8244 0 0
rfoot -21.4509 -3.49154 0
rtoes 10.9996 0 0
lowerback 0.701878 2.33199 -5.67866
upperback -1.08335 2.94294 2.08796
thorax -1.89761 1.58153 5.59811
lowerneck -10.3167 -1.97921 1.53161
upperneck -1.10184 -2.79658 -0.478672
head 1.36125 -1.40088 -0.511979
lclavicle -9.57865e-14 -3.21029e-14 0
lhumerus -41.8126 -12.8441 97.4536
lradius 38.1159 0 0
lwrist 5.4213 0 0
lhand -7.69846 3.46066 0
lfingers 7.12502 0 0
lthumb 18.1776 32.3957 0
rclavicle -9.57865e-14 -3.21029e-14 0
rhumerus -44.1803 -8.70132 -80.0939
rradius 49.0183 0 0
rwrist 0.64087 0 0
rhand -24.8511 -23.1187 0
rfingers 7.12502 0 0
rthumb 1.65538 -53.087 0
36
root 6.52642 16.7855 -27.7372 5.49253 -0.528174 -1.05151
lfemur -17.2644 4.5118 -20.7334
ltibia 35.3753 0 0
lfoot -34.5971 1.0041 0
ltoes 37.3579 0 0
rfemur -34.9821 -4.5149 26.5956
rtibia 46.2859 0 0
rfoot -21.0686 -3.19545 0
rtoes 10.5228 0 0
lowerback 0.859163 2.27497 -5.71094
upperback -1.01851 2.85412 2.04723
thorax -1.90503 1.53596 5.58264
lowerneck -10.3374 -1.96649 1.51102
upperneck -1.08845 -2.77867 -0.439862
head 1.37008 -1.39076 -0.495501
lclavicle -9.50475e-14 -3.1606e-14 0
lhumerus -41.8043 -12.944 97.3823
lradius 38.2589 0 0
lwrist 5.54403 0 0
lhand -7.53035 3.48485 0
lfingers 7.12502 0 0
lthumb 18.3385 32.3968 0
rclavicle -9.50475e-14 -3.1606e-14 0
rhumerus -44.1903 -8.88233 -79.8843
rradius 49.3423 0 0
rwrist 0.25102 0 0
rhand -24.8855 -23.1488 0
rfingers 7.12502 0 0
rthumb 1.62213 -53.1172 0
37
root 6.53847 16.7827 -27.7229 5.33684 -0.421014 -0.988711
lfemur -17.1538 4.60248 -20.7397
ltibia 35.3826 0 0
lfoot -34.4342 0.865314 0
ltoes 37.2999 0 0
rfemur -35.6379 -4.71696 26.9094
rtibia 46.7526 0 0
rfoot -20.682 -2.89603 0
rtoes 10.0404 0 0
lowerback 1.01829 2.21731 -5.74358
upperback -0.952944 2.7643 2.00607
thorax -1.91259 1.48989 5.56702
lowerneck -10.3584 -1.95362 1.49019
upperneck -1.0749 -2.76058 -0.400636
head 1.37901 -1.38053 -0.478843
lclavicle -9.42928e-14 -3.11028e-14 0
lhumerus -41.7958 -13.0451 97.3103
lradius 38.4036 0 0
lwrist 5.66812 0 0
lhand -7.36027 3.50983 0
lfingers 7.12502 0 0
lthumb 18.5014 32.3984 0
rclavicle -9.42928e-14 -3.11028e-14 0
rhumerus -44.2003 -9.06541 -79.6722
rradius 49.6698 0 0
rwrist -0.14322 0 0
rhand -24.9203 -23.1792 0
rfingers 7.12502 0 0
rthumb 1.58854 -53.1478 0
38
root 6.55065 16.7799 -27.7085 5.17944 -0.312651 -0.925271
lfemur -17.0421 4.69413 -20.7462
ltibia 35.39 0 0
lfoot -34.2696 0.724993 0
ltoes 37.2414 0 0
rfemur -36.3008 -4.92121 27.2266
rtibia 47.2244 0 0
rfoot -20.2912 -2.59335 0
rtoes 9.55279 0 0
lowerback 1.17921 2.15903 -5.77659
upperback -0.886671 2.6735 1.9645
thorax -1.92028 1.44332 5.55127
lowerneck -10.3797 -1.94063 1.46913
upperneck -1.06121 -2.74229 -0.361005
head 1.38804 -1.37018 -0.462011
lclavicle -9.35228e-14 -3.05936e-14 0
lhumerus -41.7872 -13.1473 97.2376
lradius 38.5498 0 0
lwrist 5.79352 0 0
lhand -7.18828 3.53559 0
lfingers 7.12502 0 0
lthumb 18.6661 32.4005 0
rclavicle -9.35228e-14 -3.05936e-14 0
rhumerus -44.2104 -9.25051 -79.4579
rradius 50.0008 0 0
rwrist -0.541722 0 0
rhand -24.9554 -23.2099 0
rfingers 7.12502 0 0
rthumb 1.55461 -53.1787 0
39
root 6.56296 16.7771 -27.6939 5.0204 -0.203121 -0.861206
lfemur -16.9292 4.78673 -20.7526
ltibia 35.3976 0 0
lfoot -34.1033 0.583183 0
ltoes 37.1822 0 0
rfemur -36.9706 -5.1276 27.5471
rtibia 47.7012 0 0
rfoot -19.8964 -2.28754 0
rtoes 9.06 0 0
lowerback 1.34188 2.10013 -5.80995
upperback -0.819714 2.58176 1.92254
thorax -1.92809 1.39627 5.53539
lowerneck -10.4011 -1.92751 1.44784
upperneck -1.04737 -2.72382 -0.320982
head 1.39717 -1.35974 -0.44501
lclavicle -9.27378e-14 -3.00786e-14 0
lhumerus -41.7786 -13.2505 97.1641
lradius 38.6975 0 0
lwrist 5.9202 0 0
lhand -7.01442 3.5621 0
lfingers 7.12502 0 0
lthumb 18.8325 32.4032 0
rclavicle -9.27378e-14 -3.00786e-14 0
rhumerus -44.2205 -9.43756 -79.2412
rradius 50.3352 0 0
rwrist -0.944359 0 0
rhand -24.9909 -23.241 0
rfingers 7.12502 0 0
rthumb 1.52035 -53.2099 0
40
root 6.57539 16.7742 -27.6791 4.85974 -0.0924556 -0.796537
lfemur -16.8152 4.88026 -20.7591
ltibia 35.4053 0 0
lfoot -33.9354 0.439929 0
ltoes 37.1225 0 0
rfemur -37.6471 -5.33605 27.8709
rtibia 48.1829 0 0
rfoot -19.4976 -1.97868 0
rtoes 8.56224 0 0
lowerback 1.50623 2.04066 -5.84365
upperback -0.752093 2.48911 1.88018
thorax -1.93603 1.34874 5.51938
lowerneck -10.4228 -1.91426 1.42634
upperneck -1.03339 -2.70517 -0.280579
head 1.40638 -1.3492 -0.427845
lclavicle -9.19382e-14 -2.9558e-14 0
lhumerus -41.7698 -13.3549 97.0899
lradius 38.8467 0 0
lwrist 6.04811 0 0
lhand -6.83875 3.58936 0
lfingers 7.12502 0 0
lthumb 19.0008 32.4063 0
rclavicle -9.19382e-14 -2.9558e-14 0
rhumerus -44.2307 -9.6265 -79.0223
rradius 50.6729 0 0
rwrist -1.351 0 0
rhand -25.0267 -23.2723 0
rfingers 7.12502 0 0
rthumb 1.48577 -53.2414 0
41
root 6.58795 16.7713 -27.6643 4.69754 0.0193098 -0.731283
lfemur -16.7002 4.97468 -20.7655
ltibia 35.4132 0 0
lfoot -33.7658 0.295274 0
ltoes 37.0621 0 0
rfemur -38.3302 -5.54652 28.1978
rtibia 48.6692 0 0
rfoot -19.095 -1.66687 0
rtoes 8.0597 0 0
lowerback 1.67222 1.98061 -5.87768
upperback -0.68383 2.39556 1.83746
thorax -1.94409 1.30077 5.50326
lowerneck -10.4447 -1.90089 1.40463
upperneck -1.01928 -2.68636 -0.239806
head 1.41569 -1.33856 -0.410521
lclavicle -9.11243e-14 -2.9032e-14 0
lhumerus -41.7609 -13.4602 97.0151
lradius 38.9973 0 0
lwrist 6.17723 0 0
lhand -6.66132 3.61735 0
lfingers 7.12502 0 0
lthumb 19.1706 32.41 0
rclavicle -9.11243e-14 -2.9032e-14 0
rhumerus -44.241 -9.81727 -78.8013
rradius 51.0137 0 0
rwrist -1.76153 0 0
rhand -25.0628 -23.304 0
rfingers 7.12502 0 0
rthumb 1.45087 -53.2733 0
42
root 6.60061 16.7684 -27.6492 4.53383 0.132142 -0.665464
lfemur -16.5841 5.06997 -20.772
ltibia 35.4211 0 0
lfoot -33.5947 0.149263 0
ltoes 37.0013 0 0
rfemur -39.0195 -5.75892 28.5277
rtibia 49.1601 0 0
rfoot -18.6886 -1.35221 0
rtoes 7.55253 0 0
lowerback 1.83979 1.92001 -5.91203
upperback -0.614945 2.30116 1.79437
thorax -1.95226 1.25235 5.48701
lowerneck -10.4667 -1.88741 1.38272
upperneck -1.00503 -2.66738 -0.198677
head 1.42507 -1.32782 -0.393043
lclavicle -9.02963e-14 -2.85007e-14 0
lhumerus -41.7519 -13.5665 96.9397
lradius 39.1492 0 0
lwrist 6.3075 0 0
lhand -6.4822 3.64604 0
lfingers 7.12502 0 0
lthumb 19.3422 32.4141 0
rclavicle -9.02963e-14 -2.85007e-14 0
rhumerus -44.2513 -10.0098 -78.5782
rradius 51.3576 0 0
rwrist -2.17581 0 0
rhand -25.0993 -23.336 0
rfingers 7.12502 0 0
rthumb 1.41565 -53.3054 0
43
root 6.61339 16.7655 -27.6341 4.36867 0.246006 -0.599098
lfemur -16.4671 5.16609 -20.7786
ltibia 35.4292 0 0
lfoot -33.4221 0.00193862 0
ltoes 36.9399 0 0
rfemur -39.7149 -5.9732 28.8605
rtibia 49.6553 0 0
rfoot -18.2787 -1.03481 0
rtoes 7.04091 0 0
lowerback 2.0089 1.85887 -5.94669
upperback -0.54546 2.20592 1.75093
thorax -1.96055 1.20352 5.47065
lowerneck -10.489 -1.87381 1.3606
upperneck -0.990655 -2.64824 -0.157203
head 1.43455 -1.317 -0.375416
lclavicle -8.94547e-14 -2.79645e-14 0
lhumerus -41.7428 -13.6738 96.8636
lradius 39.3025 0 0
lwrist 6.43889 0 0
lhand -6.30144 3.67542 0
lfingers 7.12502 0 0
lthumb 19.5152 32.4187 0
rclavicle -8.94547e-14 -2.79645e-14 0
rhumerus -44.2616 -10.2041 -78.3531
rradius 51.7045 0 0
rwrist -2.59372 0 0
rhand -25.1361 -23.3683 0
rfingers 7.12502 0 0
rthumb 1.38012 -53.3379 0
44
root 6.62628 16.7625 -27.6188 4.20211 0.360869 -0.532207
lfemur -16.3491 5.26302 -20.7851
ltibia 35.4374 0 0
lfoot -33.248 -0.146655 0
ltoes 36.8781 0 0
rfemur -40.4161 -6.18929 29.1962
rtibia 50.1548 0 0
rfoot -17.8653 -0.714761 0
rtoes 6.52501 0 0
lowerback 2.17948 1.79723 -5.98165
upperback -0.475395 2.10988 1.70715
thorax -1.96895 1.15427 5.45419
lowerneck -10.5115 -1.86011 1.3383
upperneck -0.976157 -2.62894 -0.115396
head 1.4441 -1.30609 -0.357645
lclavicle -8.85998e-14 -2.74234e-14 0
lhumerus -41.7336 -13.782 96.787
lradius 39.457 0 0
lwrist 6.57137 0 0
lhand -6.11908 3.70547 0
lfingers 7.12502 0 0
lthumb 19.6899 32.4237 0
rclavicle -8.85998e-14 -2.74234e-14 0
rhumerus -44.272 -10.4 -78.126
rradius 52.0542 0 0
rwrist -3.01513 0 0
rhand -25.1732 -23.4009 0
rfingers 7.12502 0 0
rthumb 1.34429 -53.3706 0
45
root 6.63927 16.7595 -27.6035 4.0342 0.476696 -0.464808
lfemur -16.2301 5.36073 -20.7917
ltibia 35.4457 0 0
lfoot -33.0726 -0.296473 0
ltoes 36.8157 0 0
rfemur -41.123 -6.40712 29.5346
rtibia 50.6584 0 0
rfoot -17.4485 -0.392161 0
rtoes 6.005 0 0
lowerback 2.35149 1.73508 -6.01689
upperback -0.40477 2.01306 1.66305
thorax -1.97745 1.10462 5.43762
lowerneck -10.5341 -1.8463 1.31581
upperneck -0.961541 -2.6095 -0.073267
head 1.45373 -1.29509 -0.339735
lclavicle -8.77319e-14 -2.68778e-14 0
lhumerus -41.7244 -13.8911 96.7098
lradius 39.6128 0 0
lwrist 6.70488 0 0
lhand -5.93519 3.73619 0
lfingers 7.12502 0 0
lthumb 19.8659 32.4292 0
rclavicle -8.77319e-14 -2.68778e-14 0
rhumerus -44.2824 -10.5976 -77.8971
rradius 52.4067 0 0
rwrist -3.43991 0 0
rhand -25.2106 -23.4337 0
rfingers 7.12502 0 0
rthumb 1.30816 -53.4037 0
